<?xml version="1.0" standalone="no"?>
<!DOCTYPE svg PUBLIC "-//W3C//DTD SVG 20010904//EN"
 "http://www.w3.org/TR/2001/REC-SVG-20010904/DTD/svg10.dtd">
<svg version="1.0" xmlns="http://www.w3.org/2000/svg"
 width="700.000000pt" height="700.000000pt" viewBox="0 0 700.000000 700.000000"
 preserveAspectRatio="xMidYMid meet">
<metadata>
Created by potrace 1.11, written by Peter Selinger 2001-2013
</metadata>
<g transform="translate(0.000000,700.000000) scale(0.100000,-0.100000)"
fill="#000000" stroke="none">
<path d="M3145 6969 c-1333 -138 -2457 -1007 -2928 -2265 -296 -791 -285
-1693 30 -2489 314 -792 915 -1450 1673 -1830 351 -176 670 -276 1070 -337
194 -29 645 -36 860 -14 283 30 626 111 862 204 l26 11 -74 77 c-184 193 -310
424 -371 683 -34 146 -43 389 -19 546 45 289 182 565 386 778 308 322 719 479
1165 446 318 -24 625 -157 863 -375 40 -36 75 -65 77 -63 7 8 77 245 101 344
114 471 124 1015 28 1495 -169 850 -652 1607 -1357 2129 -489 362 -1079 591
-1693 656 -150 16 -560 18 -699 4z m1759 -1274 c98 -21 187 -66 252 -127 69
-65 94 -112 94 -175 -1 -168 -148 -223 -269 -101 -19 18 -57 65 -86 104 -92
122 -153 164 -243 164 -100 0 -196 -78 -308 -251 -64 -99 -100 -213 -353
-1114 l-39 -140 37 -7 c47 -9 453 -70 699 -104 152 -22 192 -30 192 -42 0 -9
-14 -66 -32 -129 -24 -86 -35 -113 -48 -113 -9 0 -212 27 -450 60 -238 34
-435 59 -437 56 -6 -6 -114 -528 -110 -532 3 -3 159 -27 717 -109 135 -20 246
-38 248 -40 2 -2 -13 -60 -34 -129 -27 -94 -41 -126 -53 -126 -9 0 -222 30
-474 66 -252 37 -459 65 -461 63 -1 -2 -31 -119 -65 -259 -92 -376 -229 -779
-357 -1049 -149 -314 -342 -497 -619 -584 -224 -70 -429 -57 -590 38 -72 42
-139 112 -156 162 -16 48 2 128 42 182 27 38 32 41 77 41 93 -1 140 -36 241
-183 130 -188 277 -195 447 -22 66 68 135 180 181 291 58 142 361 1393 348
1435 -4 10 -16 21 -28 24 -12 3 -213 34 -446 70 -233 35 -424 65 -426 67 -5 6
30 246 36 253 6 5 816 -103 899 -120 l26 -6 63 266 c34 147 61 268 59 270 -2
2 -219 37 -483 78 -372 57 -480 77 -480 88 0 45 30 249 36 249 4 0 227 -32
495 -71 364 -53 489 -68 494 -59 4 7 18 51 30 99 44 169 142 485 189 610 164
434 408 720 705 828 117 42 314 55 440 28z"/>
<path d="M5485 2604 c-454 -80 -850 -419 -995 -853 -45 -135 -61 -224 -67
-371 -14 -369 124 -712 390 -973 170 -167 380 -278 642 -339 86 -21 119 -22
818 -25 l728 -4 -4 738 c-3 707 -4 742 -24 823 -45 181 -96 302 -191 446 -192
292 -509 498 -857 558 -111 20 -330 19 -440 0z m345 -914 l0 -240 245 0 245 0
0 -115 0 -115 -245 0 -245 0 0 -245 0 -245 -120 0 -120 0 -2 243 -3 242 -242
3 -243 2 0 115 0 115 245 0 245 0 0 240 0 240 120 0 120 0 0 -240z"/>
</g>
</svg>
