<svg xmlns="http://www.w3.org/2000/svg">
  <symbol id="logo" viewBox="0 0 304 304" fill="none">
    <path fill-rule="evenodd" clip-rule="evenodd" d="M184.719 246.103C184.719 211.237 213.079 182.877 247.946 182.877C265.87 182.877 282.076 190.366 293.616 202.52C299.018 187.051 302.088 170.6 302.21 153.289C302.824 69.0684 234.932 1.29914 152.185 0.808063C68.3327 0.316981 0.563404 68.3318 0.195092 151.325C-0.173219 235.3 67.8416 303.56 151.203 303.192C170.478 303.314 188.77 299.631 205.713 293.124C192.822 281.584 184.719 264.764 184.719 246.103ZM155.131 203.87C151.694 214.306 148.133 224.741 143.223 234.44C137.084 246.84 127.14 255.679 113.021 258.503C104.673 260.099 96.3243 259.363 89.3264 253.961C87.2393 252.365 84.9067 249.541 84.7839 247.208C84.6612 244.507 86.1344 240.947 88.0987 239.228C89.4492 238.123 93.6234 238.983 95.465 240.333C98.0431 242.175 99.6391 245.367 101.603 248.068C105.9 254.083 112.162 254.82 117.809 250.032C124.684 244.139 128.245 236.159 130.455 227.811C135.12 210.377 138.926 192.575 143.1 175.019C143.345 174.283 143.1 173.423 143.1 171.95C130.209 169.986 117.318 168.021 103.936 165.934C104.427 162.128 104.918 158.814 105.409 154.517C118.669 156.358 131.928 158.2 145.801 160.164C147.642 152.552 149.361 145.063 151.326 136.96C137.207 134.751 123.457 132.664 109.092 130.454C109.584 126.525 110.075 122.842 110.566 118.913C125.053 121 139.171 123.087 153.781 125.174C155.009 120.878 155.991 116.949 157.096 113.02C161.147 99.6383 164.83 86.1335 173.179 74.5931C181.65 62.9299 192.454 55.3181 207.554 55.932C214.307 56.1775 220.691 58.1419 225.479 63.5438C226.461 64.6487 226.952 64.8942 227.811 67.2269C228.794 70.0506 227.689 74.102 225.97 75.8208C223.269 78.399 219.218 77.0485 216.517 74.4703C214.43 72.3832 212.711 69.805 210.992 67.4724C206.695 61.7022 199.82 60.5973 194.786 65.7536C190.98 69.805 187.174 74.5931 185.578 79.7494C180.545 95.3413 176.493 111.301 171.705 127.998C185.701 130.085 198.715 132.05 212.342 134.014C211.237 137.943 210.255 141.38 209.15 145.309C195.891 143.467 183 141.626 169.864 139.784C168.268 147.764 166.795 155.008 165.076 163.233C178.949 165.32 192.822 167.285 207.309 169.495C206.204 173.301 205.222 176.984 203.994 180.912C190.121 178.948 176.616 176.984 162.743 174.897C160.288 184.718 158.201 194.417 155.131 203.87Z" fill="white"/>
    <path d="M303.806 246.104C303.806 215.288 278.761 190.243 247.946 190.243C217.13 190.243 192.085 215.288 192.085 246.104C192.085 276.428 216.148 300.982 246.227 301.964H303.806V246.104Z" fill="white"/>
    <path d="M253.225 220.076V240.947H274.71V251.383H253.225V272.254H242.544V251.383H221.182V240.947H242.544V220.076H253.225Z" fill="#0091ff"/>
    <path fill-rule="evenodd" clip-rule="evenodd" d="M155.009 203.87C151.571 214.306 148.011 224.741 143.1 234.44C136.961 246.84 127.017 255.679 112.898 258.503C104.55 260.099 96.2016 259.363 89.2037 253.961C87.1166 252.365 84.784 249.541 84.6612 247.208C84.5384 244.507 86.0117 240.947 87.976 239.228C89.3265 238.123 93.5007 238.983 95.3422 240.333C97.9204 242.175 99.5164 245.367 101.481 248.068C105.778 254.083 112.039 254.82 117.686 250.032C124.562 244.139 128.122 236.159 130.332 227.811C134.997 210.377 138.803 192.575 142.977 175.019C143.223 174.283 142.977 173.423 142.977 171.95C130.086 169.986 117.195 168.021 103.813 165.934C104.304 162.128 104.796 158.814 105.287 154.517C118.546 156.358 131.805 158.2 145.678 160.164C147.52 152.552 149.238 145.063 151.203 136.96C137.084 134.751 123.334 132.664 108.97 130.454C109.461 126.525 109.952 122.842 110.443 118.913C124.93 121 139.048 123.087 153.658 125.174C154.886 120.878 155.868 116.949 156.973 113.02C161.024 99.6383 164.708 86.1335 173.056 74.5931C181.527 62.9299 192.331 55.3181 207.432 55.932C214.184 56.1775 220.568 58.1419 225.356 63.5438C226.338 64.6487 226.829 64.8942 227.689 67.2269C228.671 70.0506 227.566 74.102 225.847 75.8208C223.146 78.399 219.095 77.0485 216.394 74.4703C214.307 72.3832 212.588 69.805 210.869 67.4724C206.572 61.7022 199.697 60.5973 194.663 65.7536C190.858 69.805 187.052 74.5931 185.456 79.7494C180.422 95.3413 176.371 111.301 171.583 127.998C185.578 130.085 198.592 132.05 212.22 134.014C211.115 137.943 210.133 141.38 209.028 145.309C195.768 143.467 182.878 141.626 169.741 139.784C168.145 147.764 166.672 155.008 164.953 163.233C178.826 165.32 192.699 167.285 207.186 169.495C206.081 173.301 205.099 176.984 203.871 180.912C189.998 178.948 176.493 176.984 162.62 174.897C160.288 184.718 158.201 194.417 155.009 203.87Z" fill="#0091ff"/>
  </symbol>

  <symbol id="filecoin-plus" viewBox="0 0 542 172" fill="none">
    <path d="M19.3005 109.45V61.2499H73.1006V45.4499H19.3005V16.2499H76.4005V0.249939H0.200562V109.35L19.3005 109.45ZM106.701 18.3499V0.349937H88.8005V18.4499H106.701V18.3499ZM106.701 109.45V28.4499H88.8005V109.45H106.701ZM144.801 109.45V0.349937H126.901V109.45H144.801ZM201.301 111.45C222.101 111.45 234.401 98.2499 238.001 85.2499H220.401C217.201 92.9499 210.001 96.5499 200.501 96.5499C190.301 96.5499 179.701 89.1499 178.501 74.1499H238.901C240.601 47.0499 224.901 26.7499 200.101 26.7499C177.201 26.7499 160.301 44.0499 160.301 68.4499C160.301 91.7499 175.301 111.45 201.301 111.45ZM220.701 60.9499H178.501C180.201 45.7499 191.601 40.6499 200.001 40.6499C210.601 40.6499 220.301 48.3499 220.701 60.9499ZM290.001 111.45C307.301 111.45 324.001 100.75 327.601 81.7499H310.101C307.701 92.5499 299.101 96.5499 290.201 96.5499C279.701 96.5499 269.401 88.2499 269.401 69.0499C269.401 49.9499 279.301 41.6499 290.601 41.6499C300.401 41.6499 307.801 47.6499 309.401 56.2499H327.001C323.801 38.3499 308.501 26.7499 290.701 26.7499C266.501 26.7499 250.901 45.1499 250.901 69.2499C250.901 93.3499 266.501 111.45 290.001 111.45ZM378.001 111.45C397.701 111.45 417.901 98.5499 417.901 69.1499C417.901 39.9499 397.701 26.6499 378.001 26.6499C358.301 26.6499 338.101 39.8499 338.101 69.1499C338.101 98.4499 358.301 111.45 378.001 111.45ZM378.001 96.8499C366.601 96.8499 356.601 87.9499 356.601 69.1499C356.601 50.4499 366.501 41.2499 378.001 41.2499C389.401 41.2499 399.401 50.4499 399.401 69.1499C399.401 87.9499 389.401 96.8499 378.001 96.8499ZM451.801 18.3499V0.349937H433.901V18.4499H451.801V18.3499ZM451.801 109.45V28.4499H433.901V109.45H451.801ZM489.901 109.45V66.3499C489.901 51.7499 494.901 41.2499 508.701 41.2499C522.601 41.2499 524.101 52.0499 524.101 62.9499V109.45H542.001V58.5499C542.001 39.2499 534.001 26.6499 514.401 26.6499C503.001 26.6499 494.501 31.3499 489.901 39.7499V28.4499H472.001V109.45H489.901Z" fill="white"/>
    <path d="M12.6007 132.05C21.5007 132.05 28.7007 133.75 28.7007 143.85C28.7007 153.45 21.9007 155.55 12.6007 155.55H6.30066V170.45H0.300659V132.05H12.6007ZM6.20068 137.05V150.55H12.9007C18.2007 150.55 22.4007 149.95 22.4007 143.95C22.4007 137.65 18.0007 137.05 12.7007 137.05H6.20068Z" fill="white"/>
    <path d="M45.2007 165.35H65.0007V170.45H39.1007V132.05H45.1007V165.35H45.2007Z" fill="white"/>
    <path d="M80.0006 132.05V155.15C80.0006 162.45 82.3006 166.15 89.5006 166.15C96.7006 166.15 99.0006 162.15 99.0006 154.75V132.15H105.001V154.45C105.001 166.15 100.601 171.25 89.4006 171.25C78.5006 171.25 73.9006 166.95 73.9006 154.75V132.15H80.0006V132.05Z" fill="white"/>
    <path d="M127.501 152.65C122.001 151.55 116.801 148.45 116.801 141.95C116.801 134.65 124.301 131.25 130.901 131.25C138.001 131.25 144.001 134.45 145.501 142.25H139.701C138.401 137.75 134.301 136.35 130.601 136.35C127.801 136.35 123.001 137.65 123.001 141.75C123.001 144.95 125.501 146.55 128.801 147.25L133.401 148.25C139.601 149.55 146.301 151.85 146.301 159.55C146.301 167.15 138.901 171.15 131.501 171.15C122.601 171.15 116.501 166.25 115.701 158.15H121.601C122.701 163.45 126.201 166.15 131.701 166.15C136.701 166.15 140.201 163.85 140.201 160.05C140.201 156.05 136.301 154.45 132.201 153.65L127.501 152.65Z" fill="white"/>
  </symbol>

  <symbol id="loading" viewBox="0 0 24 24" fill="none">
    <path fill-rule="evenodd" clip-rule="evenodd" d="M12 4C11.1163 4 10.4 3.28366 10.4 2.4C10.4 1.51634 11.1163 0.8 12 0.8C12.8837 0.8 13.6 1.51634 13.6 2.4C13.6 3.28366 12.8837 4 12 4ZM21.6 14.4C20.2745 14.4 19.2 13.3255 19.2 12C19.2 10.6745 20.2745 9.6 21.6 9.6C22.9255 9.6 24 10.6745 24 12C24 13.3255 22.9255 14.4 21.6 14.4ZM18.8 21.6C17.2536 21.6 16 20.3464 16 18.8C16 17.2536 17.2536 16 18.8 16C20.3464 16 21.6 17.2536 21.6 18.8C21.6 20.3464 20.3464 21.6 18.8 21.6ZM4.8 18.8C4.8 19.0209 4.97909 19.2 5.2 19.2C5.42091 19.2 5.6 19.0209 5.6 18.8C5.6 18.5791 5.42091 18.4 5.2 18.4C4.97909 18.4 4.8 18.5791 4.8 18.8ZM4 5.2C4 5.86274 4.53726 6.4 5.2 6.4C5.86274 6.4 6.4 5.86274 6.4 5.2C6.4 4.53726 5.86274 4 5.2 4C4.53726 4 4 4.53726 4 5.2ZM2.4 12.8C1.95817 12.8 1.6 12.4418 1.6 12C1.6 11.5582 1.95817 11.2 2.4 11.2C2.84183 11.2 3.2 11.5582 3.2 12C3.2 12.4418 2.84183 12.8 2.4 12.8ZM16.8 5.2C16.8 6.30457 17.6954 7.2 18.8 7.2C19.9046 7.2 20.8 6.30457 20.8 5.2C20.8 4.09543 19.9046 3.2 18.8 3.2C17.6954 3.2 16.8 4.09543 16.8 5.2Z" fill="currentColor" />
  </symbol>

  <symbol id="external-link" viewBox="0 0 6 6" fill="none">
    <path d="M2.31662 0.00735474C1.90241 0.00735468 1.56662 0.343141 1.56662 0.757355C1.56662 1.17157 1.90241 1.50735 2.31662 1.50735L2.31662 0.00735474ZM4.57592 0.757355L4.57592 0.00735497L4.57592 0.757355ZM5.24258 1.42402H5.99258V1.42402L5.24258 1.42402ZM4.49258 3.68331C4.49258 4.09753 4.82837 4.43331 5.24258 4.43331C5.6568 4.43331 5.99258 4.09753 5.99258 3.68331H4.49258ZM5.18771 1.87288C5.48061 1.57999 5.48061 1.10511 5.18771 0.81222C4.89482 0.519326 4.41995 0.519327 4.12705 0.81222L5.18771 1.87288ZM0.323308 4.61597C0.0304144 4.90886 0.0304144 5.38373 0.323308 5.67663C0.616201 5.96952 1.09107 5.96952 1.38397 5.67663L0.323308 4.61597ZM2.31662 1.50735L4.57592 1.50735L4.57592 0.00735497L2.31662 0.00735474L2.31662 1.50735ZM4.49258 1.42402V3.68331H5.99258V1.42402H4.49258ZM4.57592 1.50735C4.52989 1.50735 4.49258 1.47005 4.49258 1.42402L5.99258 1.42402C5.99258 0.641617 5.35832 0.00735509 4.57592 0.00735497L4.57592 1.50735ZM4.12705 0.81222L0.323308 4.61597L1.38397 5.67663L5.18771 1.87288L4.12705 0.81222Z" fill="currentColor" />
  </symbol>

  <symbol id="search" viewBox="0 0 24 24" fill="none">
    <path d="M18.4697 19.5303C18.7626 19.8232 19.2374 19.8232 19.5303 19.5303C19.8232 19.2374 19.8232 18.7626 19.5303 18.4697L18.4697 19.5303ZM17.05 11.4C17.05 14.5204 14.5204 17.05 11.4 17.05V18.55C15.3489 18.55 18.55 15.3489 18.55 11.4H17.05ZM11.4 17.05C8.2796 17.05 5.75 14.5204 5.75 11.4H4.25C4.25 15.3489 7.45117 18.55 11.4 18.55V17.05ZM5.75 11.4C5.75 8.2796 8.2796 5.75 11.4 5.75V4.25C7.45117 4.25 4.25 7.45117 4.25 11.4H5.75ZM11.4 5.75C14.5204 5.75 17.05 8.2796 17.05 11.4H18.55C18.55 7.45117 15.3489 4.25 11.4 4.25V5.75ZM15.4697 16.5303L18.4697 19.5303L19.5303 18.4697L16.5303 15.4697L15.4697 16.5303Z" fill="currentColor" />
  </symbol>

  <symbol id="export-csv" viewBox="0 0 24 24" fill="none">
    <path d="M19.75 15C19.75 14.5858 19.4142 14.25 19 14.25C18.5858 14.25 18.25 14.5858 18.25 15H19.75ZM5.75 15C5.75 14.5858 5.41421 14.25 5 14.25C4.58579 14.25 4.25 14.5858 4.25 15H5.75ZM17.2446 11.816C17.5375 11.5232 17.5375 11.0483 17.2446 10.7554C16.9517 10.4625 16.4768 10.4625 16.184 10.7554L17.2446 11.816ZM12.7071 15.2929L13.2374 15.8232L12.7071 15.2929ZM11.2929 15.2929L10.7626 15.8232L11.2929 15.2929ZM7.81605 10.7554C7.52315 10.4625 7.04828 10.4625 6.75539 10.7554C6.46249 11.0483 6.46249 11.5232 6.75539 11.816L7.81605 10.7554ZM11.25 15.2143C11.25 15.6285 11.5858 15.9643 12 15.9643C12.4142 15.9643 12.75 15.6285 12.75 15.2143H11.25ZM12.75 5C12.75 4.58579 12.4142 4.25 12 4.25C11.5858 4.25 11.25 4.58579 11.25 5L12.75 5ZM18.25 15V18H19.75V15H18.25ZM18 18.25H6V19.75H18V18.25ZM5.75 18V15H4.25V18H5.75ZM6 18.25C5.86193 18.25 5.75 18.1381 5.75 18H4.25C4.25 18.9665 5.0335 19.75 6 19.75V18.25ZM18.25 18C18.25 18.1381 18.1381 18.25 18 18.25V19.75C18.9665 19.75 19.75 18.9665 19.75 18H18.25ZM16.184 10.7554L12.1768 14.7626L13.2374 15.8232L17.2446 11.816L16.184 10.7554ZM11.8232 14.7626L7.81605 10.7554L6.75539 11.816L10.7626 15.8232L11.8232 14.7626ZM12.1768 14.7626C12.0791 14.8602 11.9209 14.8602 11.8232 14.7626L10.7626 15.8232C11.446 16.5066 12.554 16.5066 13.2374 15.8232L12.1768 14.7626ZM12.75 15.2143L12.75 5L11.25 5L11.25 15.2143H12.75Z" fill="currentColor" />
  </symbol>

  <symbol id="pagination-left" viewBox="0 0 24 24" fill="none">
    <path d="M14.5303 6.53033C14.8232 6.23744 14.8232 5.76256 14.5303 5.46967C14.2374 5.17678 13.7625 5.17678 13.4696 5.46967L14.5303 6.53033ZM8.70708 11.2929L9.23741 11.8232H9.23741L8.70708 11.2929ZM8.70708 12.7071L9.23741 12.1768H9.23741L8.70708 12.7071ZM13.4696 18.5303C13.7625 18.8232 14.2374 18.8232 14.5303 18.5303C14.8232 18.2374 14.8232 17.7626 14.5303 17.4697L13.4696 18.5303ZM13.4696 5.46967L8.17675 10.7626L9.23741 11.8232L14.5303 6.53033L13.4696 5.46967ZM8.17675 13.2374L13.4696 18.5303L14.5303 17.4697L9.23741 12.1768L8.17675 13.2374ZM8.17675 10.7626C7.49333 11.446 7.49333 12.554 8.17675 13.2374L9.23741 12.1768C9.13978 12.0791 9.13978 11.9209 9.23741 11.8232L8.17675 10.7626Z" fill="currentColor" />
  </symbol>

  <symbol id="pagination-right" viewBox="0 0 24 24" fill="none">
    <path d="M9.53033 5.46967C9.23744 5.17678 8.76256 5.17678 8.46967 5.46967C8.17678 5.76256 8.17678 6.23744 8.46967 6.53033L9.53033 5.46967ZM14.2929 11.2929L13.7626 11.8232H13.7626L14.2929 11.2929ZM14.2929 12.7071L13.7626 12.1768H13.7626L14.2929 12.7071ZM8.46967 17.4697C8.17678 17.7626 8.17678 18.2374 8.46967 18.5303C8.76256 18.8232 9.23744 18.8232 9.53033 18.5303L8.46967 17.4697ZM8.46967 6.53033L13.7626 11.8232L14.8232 10.7626L9.53033 5.46967L8.46967 6.53033ZM13.7626 12.1768L8.46967 17.4697L9.53033 18.5303L14.8232 13.2374L13.7626 12.1768ZM13.7626 11.8232C13.8602 11.9209 13.8602 12.0791 13.7626 12.1768L14.8232 13.2374C15.5066 12.554 15.5066 11.446 14.8232 10.7626L13.7626 11.8232Z" fill="currentColor" />
  </symbol>

  <symbol id="dropdown-down" viewBox="0 0 24 24" fill="none">
    <path d="M11.2929 14.2929L7.70713 10.7071C7.07716 10.0771 7.52333 9 8.41424 9H15.5858C16.4767 9 16.9229 10.0771 16.2929 10.7071L12.7071 14.2929C12.3166 14.6834 11.6834 14.6834 11.2929 14.2929Z" fill="currentColor" />
  </symbol>

  <symbol id="dropdown-up" viewBox="0 0 24 24" fill="none">
    <path d="M12.7071 9.70711L16.2929 13.2929C16.9228 13.9229 16.4767 15 15.5858 15L8.41419 15C7.52329 15 7.07712 13.9229 7.70708 13.2929L11.2929 9.70711C11.6834 9.31658 12.3166 9.31658 12.7071 9.70711Z" fill="#627D98"/>
  </symbol>

  <symbol id="navigation-back" viewBox="0 0 24 24" fill="none">
    <path d="M11.5304 6.53033C11.8233 6.23744 11.8233 5.76256 11.5304 5.46967C11.2375 5.17678 10.7627 5.17678 10.4698 5.46967L11.5304 6.53033ZM5.7072 11.2929L6.23753 11.8232H6.23753L5.7072 11.2929ZM5.7072 12.7071L6.23753 12.1768H6.23753L5.7072 12.7071ZM10.4698 18.5303C10.7627 18.8232 11.2375 18.8232 11.5304 18.5303C11.8233 18.2374 11.8233 17.7626 11.5304 17.4697L10.4698 18.5303ZM6.00009 11.25C5.58588 11.25 5.25009 11.5858 5.25009 12C5.25009 12.4142 5.58588 12.75 6.00009 12.75L6.00009 11.25ZM19.0001 12.75C19.4143 12.75 19.7501 12.4142 19.7501 12C19.7501 11.5858 19.4143 11.25 19.0001 11.25V12.75ZM10.4698 5.46967L5.17687 10.7626L6.23753 11.8232L11.5304 6.53033L10.4698 5.46967ZM5.17687 13.2374L10.4698 18.5303L11.5304 17.4697L6.23753 12.1768L5.17687 13.2374ZM5.17687 10.7626C4.49345 11.446 4.49345 12.554 5.17687 13.2374L6.23753 12.1768C6.1399 12.0791 6.1399 11.9209 6.23753 11.8232L5.17687 10.7626ZM6.00009 12.75L19.0001 12.75V11.25L6.00009 11.25L6.00009 12.75Z" fill="currentColor" />
  </symbol>

  <symbol id="copy" viewBox="0 0 24 24" fill="none">
    <path d="M17 17V17.5C17 18.6046 16.1046 19.5 15 19.5H6.5C5.39543 19.5 4.5 18.6046 4.5 17.5V9C4.5 7.89543 5.39543 7 6.5 7H7M17 17H9C7.89543 17 7 16.1046 7 15V7M17 17C18.1046 17 19 16.1046 19 15V10M7 7C7 5.89543 7.89543 5 9 5H14M19 10H16C14.8954 10 14 9.10457 14 8V5M19 10L14 5" stroke="currentColor" stroke-width="1.5" stroke-linecap="round" stroke-linejoin="round" />
  </symbol>

  <symbol id="sort-asc" viewBox="0 0 6 4" fill="none">
    <path d="M4.46967 3.53018C4.76256 3.82307 5.23744 3.82307 5.53033 3.53018C5.82322 3.23729 5.82322 2.76241 5.53033 2.46952L4.46967 3.53018ZM3.70711 1.70696L3.17678 2.23729L3.70711 1.70696ZM2.29289 1.70696L2.82322 2.23729L2.82322 2.23729L2.29289 1.70696ZM0.46967 2.46952C0.176777 2.76241 0.176777 3.23729 0.46967 3.53018C0.762563 3.82307 1.23744 3.82307 1.53033 3.53018L0.46967 2.46952ZM5.53033 2.46952L4.23744 1.17663L3.17678 2.23729L4.46967 3.53018L5.53033 2.46952ZM1.76256 1.17663L0.46967 2.46952L1.53033 3.53018L2.82322 2.23729L1.76256 1.17663ZM4.23744 1.17663C3.55402 0.493208 2.44598 0.493209 1.76256 1.17663L2.82322 2.23729C2.92086 2.13965 3.07915 2.13965 3.17678 2.23729L4.23744 1.17663Z" fill="currentColor" />
  </symbol>

  <symbol id="sort-desc" viewBox="0 0 6 4" fill="none">
    <path d="M5.53033 1.53033C5.82322 1.23744 5.82322 0.762563 5.53033 0.46967C5.23744 0.176777 4.76256 0.176777 4.46967 0.46967L5.53033 1.53033ZM3.70711 2.29289L3.17678 1.76256L3.70711 2.29289ZM2.29289 2.29289L1.76256 2.82322L2.29289 2.29289ZM1.53033 0.46967C1.23744 0.176777 0.762563 0.176777 0.46967 0.46967C0.176777 0.762563 0.176777 1.23744 0.46967 1.53033L1.53033 0.46967ZM4.46967 0.46967L3.17678 1.76256L4.23744 2.82322L5.53033 1.53033L4.46967 0.46967ZM2.82322 1.76256L1.53033 0.46967L0.46967 1.53033L1.76256 2.82322L2.82322 1.76256ZM3.17678 1.76256C3.07915 1.86019 2.92085 1.86019 2.82322 1.76256L1.76256 2.82322C2.44598 3.50664 3.55402 3.50664 4.23744 2.82322L3.17678 1.76256Z" fill="currentColor" />
  </symbol>

  <symbol id="github" viewBox="0 0 24 24" fill="none">
    <path d="M11.6617 5.47389C12.7041 5.46313 13.5464 5.67834 14.1045 5.86127C14.3782 5.61378 14.8415 5.24792 15.4943 5.01118C15.9681 4.82825 16.3893 4.77445 16.7052 4.75293C16.821 4.98966 17.0316 5.45237 17.0421 6.07648C17.0526 6.65755 16.8947 7.09874 16.7894 7.33547C17.0948 7.71209 17.5686 8.40077 17.7897 9.37998C17.8739 9.72432 18.3056 11.6397 17.0526 13.2753C15.747 14.997 13.5675 14.728 13.4727 14.9647C13.3779 15.2015 13.8939 15.6426 14.1361 16.568C14.3782 17.4935 14.2729 19.2582 14.2729 19.2582" stroke="currentColor" stroke-width="1.5" stroke-miterlimit="10" stroke-linecap="round" stroke-linejoin="round"/>
    <path d="M11.6622 5.47389C10.6198 5.46313 9.77749 5.67834 9.22997 5.86127C8.95621 5.61378 8.49292 5.24792 7.84011 5.01118C7.36629 4.82825 6.94512 4.77445 6.62925 4.75293C6.51343 4.98966 6.30284 5.45237 6.29231 6.07648C6.28178 6.65755 6.43972 7.09874 6.54501 7.33547C6.23966 7.71209 5.76585 8.40077 5.54474 9.37998C5.47103 9.72432 5.03933 11.6289 6.28178 13.2753C7.58741 14.997 9.76696 14.728 9.86172 14.9647C9.95648 15.2015 9.44055 15.6426 9.19838 16.568C8.95621 17.4935 9.0615 19.2582 9.0615 19.2582" stroke="currentColor" stroke-width="1.5" stroke-miterlimit="10" stroke-linecap="round" stroke-linejoin="round"/>
    <path d="M8.85101 17.9366C8.85101 17.9366 8.24061 18.1067 7.46144 17.2458C6.68228 16.385 6.21899 16.3958 6.21899 16.3958" stroke="currentColor" stroke-width="1.5" stroke-miterlimit="10" stroke-linecap="round" stroke-linejoin="round"/>
  </symbol>

  <symbol id="tooltip" viewBox="0 0 18 18" fill="none">
    <path fill-rule="evenodd" clip-rule="evenodd" d="M8.99987 16.4665C13.1236 16.4665 16.4665 13.1236 16.4665 8.99987C16.4665 4.87614 13.1236 1.5332 8.99987 1.5332C4.87614 1.5332 1.5332 4.87614 1.5332 8.99987C1.5332 13.1236 4.87614 16.4665 8.99987 16.4665Z" stroke="currentColor" stroke-width="1.5" stroke-linecap="round"/>
    <path d="M9 5.99951V7.99951V9.99951" stroke="currentColor" stroke-width="1.5" stroke-linecap="round" />
    <path d="M9 12.0662V11.9995" stroke="currentColor" stroke-width="1.5" stroke-linecap="round" />
  </symbol>

  <symbol id="menu" viewBox="0 0 24 24" fill="none">
    <path d="M3 5H21M3 12H21M3 19H21" stroke="currentColor" stroke-width="1.5" stroke-linecap="round" stroke-linejoin="round" />
  </symbol>

  <symbol id="close" viewBox="0 0 24 24" fill="none">
    <path d="M17 7L7 17M7 7L17 17" stroke="currentColor" stroke-width="1.5" stroke-linecap="round" stroke-linejoin="round"/>
  </symbol>

  <symbol id="filfox" viewBox="0 0 139.85 140.156" xmlns="http://www.w3.org/2000/svg">
    <circle cx="69.925" cy="70.078" r="69.925" stroke="currentColor" stroke-width="1.5" stroke-miterlimit="10" stroke-linecap="round" stroke-linejoin="round"/>
    <path fill="#fff" d="M82.67 64.278a23.129 23.129 0 0 1-6.67-.936 26.617 26.617 0 0 0-7.12-.937 25.762 25.762 0 0 0-25.53 25.987 26.9 26.9 0 0 0 .6 5.647l.03.129a40.414 40.414 0 0 1-5.69-20.759c0-22.111 17.6-40.035 39.32-40.035a37.627 37.627 0 0 1 15.41 3.278 13.047 13.047 0 0 0 5.06.936 13.607 13.607 0 0 0 9.7-4.011 27.106 27.106 0 0 1 .42 4.714 25.762 25.762 0 0 1-25.53 25.987zm-22.76 2.5l-.02.11a12.466 12.466 0 0 0-.21 2.3 12.294 12.294 0 0 0 12.18 12.409 11.965 11.965 0 0 0 1.96-.16 11.9 11.9 0 0 0 1.85-.456v.006l-.06.314a.827.827 0 0 1-.03.153.713.713 0 0 1-.02.145 1.712 1.712 0 0 0-.05.218c0 .013-.01.027-.01.041a9.935 9.935 0 0 1-6.62 7.231 19.773 19.773 0 0 0-14.26 19.2 21.375 21.375 0 0 0 1.38 7.492l.11.192a31.241 31.241 0 0 1 3.8-49.19zm-1.53 12.626a2.551 2.551 0 0 0 2.53 2.575 1.722 1.722 0 0 0 .69 0 6.919 6.919 0 0 0-3.22-3.278v.7z"/>
  </symbol>
</svg>
